<?xml version="1.0" encoding="utf-8"?>
<!-- Generator: Adobe Illustrator 17.0.0, SVG Export Plug-In . SVG Version: 6.00 Build 0)  -->
<!DOCTYPE svg PUBLIC "-//W3C//DTD SVG 1.1//EN" "http://www.w3.org/Graphics/SVG/1.1/DTD/svg11.dtd">
<svg version="1.1" id="Layer_1" xmlns="http://www.w3.org/2000/svg" xmlns:xlink="http://www.w3.org/1999/xlink" x="0px" y="0px"
	 width="186px" height="194px" viewBox="0 0 186 194" enable-background="new 0 0 186 194" xml:space="preserve">
<symbol  id="text" viewBox="-104.549 -69.99 209.099 139.98">
	<polygon fill="none" points="104.55,-65.657 -101.904,-69.99 -104.549,55.982 101.906,60.315 	"/>
	
		<text transform="matrix(0.9998 0.021 0.021 -0.9998 -61.9435 26.2101)" fill="#030303" font-family="'Gotham-Bold'" font-size="42">SHOP </text>
	
		<text transform="matrix(0.9998 0.021 0.021 -0.9998 -78.8029 -11.1527)" fill="#030303" font-family="'Gotham-Bold'" font-size="42">BUDDY</text>
	
		<line fill="none" stroke="#FCEF37" stroke-width="3.8013" stroke-miterlimit="10" x1="-67.737" y1="65.351" x2="62.734" y2="68.09"/>
	
		<line fill="none" stroke="#FCEF37" stroke-width="3.8013" stroke-miterlimit="10" x1="-66.037" y1="-20.631" x2="64.434" y2="-17.892"/>
</symbol>
<g id="NVLVlR.tif">
	<g>
		<path fill="#F8EC82" d="M45.986,26.729c0.259,0.452-0.007,0.907-0.004,1.36c0.02,2.841,0.12,5.688-0.054,8.522
			c-0.229,3.73,0.025,7.464-0.213,11.184c-0.2,3.125,0.02,6.251-0.185,9.366c-0.281,4.273-0.085,8.545-0.202,12.815
			c-0.009,0.337,0.068,0.684-0.289,0.96c-0.114,0.088-0.073,0.359-0.078,0.547c-0.011,0.51-0.01,1.022-0.011,1.532
			c-0.008,6.41-0.209,12.82-0.28,19.23c-0.033,2.96-0.042,5.924-0.149,8.884c-0.028,0.772,0.236,1.505,0.196,2.335
			c1.078,0.032,1.542,0.802,2.093,1.47c0.308,0.374,0.611,0.708,1.08,0.97c0.579,0.324,1.048,0.835,1.504,1.313
			c0.184,0.193,0.336,0.396,0.599,0.489c0.568,0.204,1.016,0.501,1.222,1.067c0.122,0.336,0.526,0.388,0.825,0.534
			c0.394,0.193,0.836,0.329,1.01,0.738c0.1,0.323-0.319,0.533-0.232,0.682c0.292,0.63,0.785,0.448,1.228,0.528
			c0.155,0.622,0.833,0.971,1.001,1.606c0.476,0.176,0.951,0.352,1.514,0.561c0.209,0.473,0.57,0.953,0.93,1.439
			c0.341,0.462,0.574,1.119,0.628,1.783c-1.075,0.403-1.989,0.965-2.973,1.418c-1.194,0.551-2.4,1.08-3.615,1.582
			c-1.377,0.569-2.662,1.297-4.096,1.786c-1.014,0.345-1.955,0.925-2.987,1.297c-0.297,0.107-0.415,0.324-0.241,0.702
			c1.486-0.772,2.965-1.538,4.556-2.09c1.641-0.568,3.112-1.462,4.738-2.063c1.576-0.582,3.004-1.435,4.517-2.133
			c1.529-0.705,3.015-1.489,4.571-2.263c0.337,0.632,1.308,0.586,1.652,1.262c1.233,0.483,1.962,1.5,2.876,2.314
			c0.637,0.567,1.371,1.004,2.149,1.297c1.368,0.516,2.357,1.389,3.26,2.4c0.657,0.735,1.287,1.495,2.455,1.6
			c0.448,0.04,0.828,0.275,1.129,0.613c0.662,0.746,1.559,1.032,2.571,1.251c1.361,0.294,2.522,0.944,3.065,2.261
			c0.14,0.34,0.42,0.638,0.484,0.924c0.272,0.302,0.589,0.189,0.891,0.274c0.471,0.73,1.103,1.188,2.104,0.756
			c0.809,0.232,1.685,0.32,2.358,0.851c0.271,0.214,0.562,0.345,0.873,0.444c0.238-0.249,0.123-0.421-0.021-0.625
			c-0.529-0.749-1.422-1.179-1.978-1.89c-1.2-1.533-2.733-2.788-4.145-4.136c-0.997-0.952-1.961-1.969-3.16-2.737
			c-0.408-0.261-0.582-0.693-0.932-1.007c-1.581-1.421-3.313-2.675-5.045-3.92c-0.022-0.198-0.084-0.389,0.084-0.552
			c1.421,0.182,2.387,1.302,3.803,1.547c0.284,0.12,0.252,0.511,0.707,0.68c0.205,0,0.548,0,1.082,0
			c0.152,0.181,0.322,0.483,0.587,0.678c0.444,0.328,0.865,0.695,1.53,0.696c0.348,0.001,0.752,0.112,1.045,0.349
			c0.416,0.338,0.915,0.418,1.508,0.403c0.134,1.002,1.154,1.067,1.856,1.462c0.516,0.29,1.103,0.489,1.68,0.673
			c0.723,0.23,1.313,0.686,2.02,0.936c0.063,0.022,0.152,0.055,0.17,0.103c0.414,1.07,1.693,0.928,2.472,1.484
			c0.079,0.056,0.196,0.12,0.281,0.107c0.967-0.149,1.705,0.346,2.512,0.691c0.728,0.311,1.494,0.279,2.314,0.198
			c1.145-0.115,2.325,0.034,3.289,0.759c0.187,0.14,0.354,0.302,0.518,0.445c0.759,0.11,1.541-0.132,2.223,0.377
			c0.204,0.152,0.673,0.101,1.004-0.053c0.33-0.153,0.706-0.196,0.999-0.02c0.605,0.363,1.261,0.286,1.915,0.301
			c0.584,0.015,1.158-0.024,1.744,0.157c0.494,0.152,1.047,0.096,1.367-0.406c1.329,0.493,2.688,0.538,3.952,0.913
			c0.406,0.12,0.648-0.127,0.992-0.104c0.728,0.049,1.462,0.024,2.194,0.011c0.541-0.009,1.127,0.137,1.564-0.315
			c1.02,0.127,1.918-0.526,3.005-0.301c0.713,0.147,1.523,0.165,2.307-0.254c0.471-0.252,1.254-0.182,1.837-0.046
			c0.673,0.159,1.272,0.159,1.916-0.027c0.221-0.063,0.482-0.01,0.734-0.01c0.397-0.321,0.798-0.608,1.281-0.812
			c0.341-0.143,0.705-0.233,1.004-0.129c0.848,0.295,1.601-0.023,2.397-0.161c0.442-0.077,0.873-0.282,1.39-0.085
			c0.344,0.131,0.694-0.223,1.03-0.372c0.621-0.275,1.174-0.275,1.65,0.196c0.094,0,0.186,0.027,0.229-0.004
			c1.221-0.87,2.587-1.39,4.136-1.535c0.572-0.054,1.133-0.224,1.693-0.36c0.627-0.153,1.24-0.384,1.854-0.533
			c1.045-0.254,2.056-0.63,3.122-0.789c0.483-0.072,0.989-0.116,1.365-0.375c0.573-0.394,1.195-0.442,1.804-0.41
			c0.51-0.264,0.755-0.735,1.165-0.917c0.374-0.108,0.575,0.199,0.792,0.158c1.373-0.631,2.762-1.022,4.307-1.485
			c1.196-0.897,2.729-1.56,4.428-2.122c0.136-0.716,0.991-0.956,1.436-1.484c0.376-0.154,0.735-0.036,1.239-0.144
			c0.69-0.98,1.482-2.082,3.132-2.032c0.208,1.937,0.196,3.88,0.245,5.822c0.023,0.901,0.167,1.82,0.218,2.733
			c0.132,2.356,0.268,4.711,0.39,7.067c0.068,1.306,0.251,2.606,0.199,3.916c0.444,1.054,0.034,2.169,0.275,3.238
			c0.047,0.903,0.151,1.807,0.126,2.709c-0.028,0.989,0.277,1.936,0.298,2.921c0.036,1.688,0.212,3.373,0.301,5.061
			c0.111,2.103,0.192,4.208,0.287,6.311c0.043,0.952,0.221,1.899,0.154,2.877c-0.507,0.185-1.021,0.191-1.532,0.22
			c-2.673,0.151-5.347,0.292-8.018,0.462c-3.537,0.224-7.072,0.483-10.609,0.709c-3.434,0.219-6.87,0.41-10.304,0.624
			c-3.081,0.193-6.16,0.41-9.241,0.603c-2.192,0.137-4.386,0.257-6.569,0.498c-0.034,0.004-0.07,0.005-0.104,0.002
			c-1.54-0.099-3.059,0.16-4.59,0.227c-2.458,0.108-4.91,0.33-7.366,0.487c-2.429,0.157-4.859,0.287-7.288,0.441
			c-2.632,0.167-5.263,0.353-7.894,0.52c-2.394,0.152-4.789,0.282-7.183,0.436c-2.497,0.16-4.992,0.342-7.489,0.505
			c-1.492,0.097-2.986,0.17-4.479,0.263c-3.599,0.225-7.198,0.445-10.794,0.71c-1.248,0.092-2.499,0.153-3.748,0.228
			c-3.536,0.212-7.072,0.419-10.607,0.637c-2.844,0.176-5.687,0.368-8.532,0.546c-0.334,0.021-0.703,0.132-0.966-0.186
			c-0.804-1.122-1.435-2.318-1.976-3.568c-1.012-2.338-2.324-4.559-3.299-6.914c-0.099-0.238-0.228-0.465-0.585-0.674
			c-2.256,0.174-4.579,0.579-6.924,0.791c-2.287,0.207-4.546,0.757-6.876,0.668c-0.089-0.579-0.132-1.015,0.002-1.452
			c0.165-3.059,0.122-6.142,0.55-9.169c0.472-3.344,0.496-6.697,0.754-10.044c0.264-3.435,0.432-6.877,0.642-10.316
			c0.21-3.439,0.421-6.878,0.632-10.317c0.207-3.376,0.31-6.76,0.673-10.121c0.134-1.243,0.289-2.489,0.38-3.738
			c0.109-1.495,0.235-2.99,0.324-4.485c0.172-2.898,0.309-5.798,0.488-8.697c0.24-3.884,0.51-7.767,0.76-11.651
			c0.092-1.433,0.166-2.866,0.244-4.3c0.09-1.657,0.01-3.339,0.298-4.965c0.663-3.742,0.498-7.528,0.908-11.281
			c0.138-1.267,0.144-2.547,0.228-3.822c0.271-4.107,0.477-8.217,0.718-12.326c0.195-3.312,0.403-6.623,0.61-9.935
			c0.012-0.185-0.039-0.386,0.179-0.65c3.541,0.391,7.145,0.789,10.793,1.191C43.695,28.316,44.84,27.522,45.986,26.729z"/>
		<path fill="#ECE842" d="M118.147,26.742c-0.889,0.002-1.779,0.003-2.668,0.005c-0.484-0.226-0.354-0.653-0.373-1.016
			c-0.159-3.095-0.43-6.191-1.215-9.202c-0.719-2.755-1.427-5.555-2.774-8.113c-1.57-2.983-3.338-5.885-6.213-8.06
			c-2.244-1.697-4.769-2.722-7.67-2.974c-0.474-0.041-0.891,0.064-1.309,0.243c-1.373,0.587-2.639,1.368-3.66,2.356
			c-1.477,1.43-2.871,2.93-3.961,4.671c-2.058,3.288-3.538,6.771-4.694,10.396c-1.113,3.489-2.016,7.012-2.46,10.628
			c-0.031,0.255-0.05,0.514-0.311,0.68c-0.367,0.479-0.181,1.047-0.256,1.566c-0.311,2.134-0.518,4.282-0.759,6.383
			c0.274,0.431,0.626,0.749,0.68,1.225c0.176,1.551-1.563,2.788-3.183,2.25c-1.216-0.404-1.738-1.077-1.694-2.116
			c0.027-0.638,0.385-1.1,0.924-1.413c0.372-0.216,0.521-0.471,0.552-0.84c0.081-0.98,0.323-1.946,0.392-2.918
			c0.1-1.425,0.311-2.836,0.456-4.254c-0.312-0.627-0.059-1.259,0.034-1.871c0.23-1.516,0.393-3.059,0.838-4.525
			c0.931-3.07,1.512-6.238,2.766-9.212c1.264-2.996,2.681-5.946,4.6-8.663c0.777-1.099,1.771-2.031,2.616-3.049
			c-3.417,1.757-6.192,4.177-8.523,7.106c-2.06,2.589-3.644,5.407-5.357,8.178c-1.186,1.92-1.753,4.001-2.72,5.96
			c-0.88,1.781-1.525,3.624-2.103,5.495c-0.067,0.215-0.143,0.432-0.416,0.51c-0.661-0.008-1.322-0.016-1.982-0.025
			c-0.24-0.003-0.493,0.037-0.677-0.163c0.5-1.749,0.978-3.494,1.847-5.145c0.659-1.252,1.052-2.62,1.612-3.918
			c0.979-2.271,2.216-4.439,3.47-6.582c0.662-1.131,1.337-2.283,2.146-3.345c0.968-1.271,1.889-2.583,2.983-3.759
			c1.567-1.682,3.219-3.318,5.168-4.638c3.233-2.19,6.814-3.635,10.876-3.925c0.418-0.029,0.823-0.078,1.224-0.208
			c2.217-0.721,4.502-1.066,6.855-0.932c2.306,0.131,4.528,0.583,6.63,1.494c2.274,0.986,4.301,2.267,6.121,3.875
			c0.902,0.797,1.658,1.695,2.52,2.508c1.101,1.038,1.786,2.325,2.721,3.454c1.038,1.254,1.652,2.704,2.5,4.04
			c1.266,1.993,1.952,4.188,2.916,6.284c0.674,1.466,1.24,2.946,1.608,4.483c0.373,1.557,0.949,3.076,1.119,4.669
			c0.043,0.402,0.381,0.637,0.444,1.025c0.088,0.541-0.022,1.075,0.057,1.608c-0.005,0.159-0.082,0.362-0.003,0.468
			c0.512,0.687,0.372,1.463,0.384,2.211c0.023,1.401,0.007,2.804,0.007,4.186c0.542,0.553,1.105,1.011,1.086,1.821
			c-0.02,0.846-0.493,1.398-1.192,1.779c-0.757,0.412-1.646,0.449-2.365-0.03c-0.661-0.441-1.506-0.849-1.343-1.854
			c0.068-0.42,0.112-0.786,0.554-1.047c0.402-0.238,0.528-0.629,0.522-1.08c-0.021-1.372,0.066-2.748-0.036-4.113
			c-0.058-0.773-0.025-1.582-0.357-2.329c-0.798-1.481-0.935-3.12-1.279-4.701c-0.817-3.751-2.286-7.308-3.98-10.766
			c-1.828-3.731-4.173-7.223-7.331-10.159c-2.683-2.494-5.804-4.369-9.706-4.954c3.984,2.289,6.613,5.547,8.723,9.346
			c1.573,2.831,2.486,5.83,3.358,8.823c0.636,2.183,0.781,4.522,1.072,6.802c0.181,1.419,0.546,2.818,0.409,4.263
			C118.332,26.01,118.414,26.404,118.147,26.742z"/>
		<path fill="#FAF4A5" d="M129.846,27.279c5.356,0.201,10.717,0.132,16.072,0.305c4.523,0.147,9.047,0.085,13.568,0.234
			c1.135,0.038,2.277,0.117,3.53,0.14c-0.092,1.952,0.182,3.808,0.245,5.69c0.087,2.607,0.1,5.221,0.341,7.822
			c0.085,0.919,0.018,1.855,0.057,2.781c0.034,0.812-0.194,1.68,0.357,2.403c0.072,0.094,0.032,0.313,0.03,0.474
			c-0.037,3.425,0.4,6.837,0.234,10.264c-0.072,1.494,0.261,2.94,0.307,4.418c0.011,0.36,0.078,0.717,0.089,1.078
			c0.097,2.978,0.141,5.961,0.293,8.935c0.162,3.175,0.294,6.35,0.387,9.528c0.019,0.643,0.023,1.29-0.017,1.932
			c-0.1,1.573,0.277,3.099,0.322,4.658c0.013,0.435,0.064,0.88,0.079,1.321c0.093,2.737,0.137,5.478,0.289,8.211
			c0.072,1.286-0.078,2.639,0.212,3.843c0.496,2.06,0.358,4.126,0.357,6.179c-0.001,2.447,0.158,4.89,0.285,7.314
			c0.154,2.955,0.214,5.927,0.5,8.875c0.016,0.16,0.013,0.323,0.018,0.484c0.091,2.778,0.154,5.558,0.285,8.334
			c0.081,1.728,0.242,3.451,0.157,5.184c-1.08,0.632-2.184,1.214-2.831,2.519c-0.156,0.314-0.52,0.389-0.833,0.448
			c-0.546,0.104-1.016,0.431-1.316,0.916c-0.538,0.87-1.303,1.276-2.091,1.716c-2.091,1.167-4.071,2.581-6.33,3.364
			c-2.969,1.028-5.811,2.486-8.84,3.355c-1.92,0.551-3.81,1.26-5.764,1.67c-0.206,0.043-0.406,0.136-0.582,0.265
			c-0.963,0.709-1.856,1.207-3.159,1.026c-0.947-0.131-2.083,0.415-3.135,0.655c-0.753,0.172-1.495,0.372-2.274,0.196
			c-0.503-0.114-0.971,0.092-1.383,0.419c-1.067,0.847-2.24,1.028-3.49,0.803c-0.73-0.131-1.456-0.157-2.162,0.174
			c-0.566,0.266-1.174,0.304-1.752,0.188c-1.112-0.224-2.156,0.135-3.186,0.449c-1.685,0.514-3.446,0.61-5.066,0.259
			c-2.13-0.462-4.248-0.521-6.38-0.673c-2.103-0.149-4.201-0.352-6.28-0.773c-0.355-0.072-0.659-0.252-0.936-0.505
			c-0.993-0.905-2.15-1.088-3.358-0.984c-0.524,0.045-1.082,0.202-1.551-0.057c-1.637-0.902-3.485-1.09-5.091-2.083
			c-0.311-0.192-0.61-0.388-0.83-0.715c-0.217-0.323-0.476-0.604-0.8-0.762c-2.242-1.094-4.222-2.78-6.414-3.937
			c-2.526-1.334-4.894-2.972-7.337-4.462c-0.271-0.166-0.533-0.387-0.968-0.334c0.874,1.025,1.866,1.768,2.726,2.686
			c2.639,2.816,5.141,5.79,7.682,8.72c1.31,1.51,2.38,3.265,3.762,4.696c0.483,0.5,1.074,1.089,0.78,2.035
			c-0.488,0.314-0.835-0.013-1.184-0.261c-0.849-0.604-1.741-0.874-2.759-0.94c-1.356-0.088-2.425-1.029-3.021-2.409
			c-0.727-1.687-1.793-2.714-3.369-3.104c-0.866-0.214-1.646-0.643-2.267-1.41c-0.313-0.387-0.673-0.731-1.127-0.842
			c-1.132-0.277-1.904-1.113-2.586-2.118c-0.895-1.319-1.955-2.388-3.306-3.07c-0.964-0.487-1.809-1.206-2.52-2.119
			c-0.961-1.237-2.083-2.254-3.26-3.198c-0.54-0.433-1.022-0.492-1.631-0.082c-2.407,1.622-4.866,3.153-7.367,4.555
			c-1.968,1.104-3.905,2.309-5.948,3.24c-1.038,0.473-2.052,1.006-2.981,1.738c-0.346,0.272-0.739,0.45-1.214,0.368
			c-0.354-0.678-0.001-1.079,0.46-1.325c2.751-1.464,5.452-3.049,8.192-4.536c1.662-0.903,3.34-1.783,4.934-3.026
			c-0.269-1.686-0.836-3.085-2.126-3.944c-0.437-0.291-0.81-0.603-1.07-1.106c-0.307-0.593-0.654-1.136-1.261-1.383
			c-0.359-0.147-0.561-0.497-0.55-0.94c0.017-0.71-0.316-1.114-0.819-1.407c-0.919-0.534-1.497-1.546-2.243-2.307
			c-1.136-1.158-2.422-2.183-3.297-3.675c-0.214-0.366-0.446-0.795-0.799-0.938c-1.072-0.432-1.247-1.47-1.258-2.522
			c-0.039-3.951-0.198-7.903,0.096-11.852c0.153-2.053,0.082-4.116,0.049-6.171c-0.108-6.739-0.011-13.493,0.338-20.198
			c0.285-5.483,0.006-10.954,0.336-16.41c0.227-3.754-0.012-7.508,0.2-11.247c0.272-4.801-0.02-9.607,0.226-14.393
			c0.214-4.158,0.088-8.307,0.157-12.46c0.014-0.85,0.027-1.689,0.308-2.489c0.042-0.361,0.25-0.67,0.209-1.028
			c0.322-0.234,0.643-0.132,0.945-0.122c6.121,0.206,12.244,0.224,18.367,0.268c0.505,0.004,1.024,0.287,1.519-0.065
			c0.949-0.231,1.91-0.085,2.865-0.111c2.33-0.064,4.659-0.023,6.988-0.022c0.313,0,0.626,0.025,0.92,0.168
			c0.458,0.31,0.372,0.812,0.326,1.29c-0.246,2.523-0.398,5.057-0.695,7.575c-0.094,0.796-0.316,1.447-0.804,2.032
			c-0.222,0.37-0.41,0.302,0.479,0.72c0.58,0.126,0.892,0.247,1.633,0.148c0.597-0.233,1.261-0.592,1.689-1.507
			c-0.415-1.054-0.919-0.794-0.743-1.89c0.365-2.262,0.394-4.571,0.685-6.845c0.072-0.562,0.079-1.155,0.682-1.355
			c1.354-0.221,2.714-0.089,4.07-0.104c6.686-0.075,13.368,0.241,20.053,0.313c3.371,0.037,6.751,0.052,10.125,0.198
			c0.931-0.027,1.863-0.037,2.794,0.003c2.937,0.459,5.904-0.007,8.843,0.368c0.484,0.246,0.561,0.754,0.638,1.285
			c0.337,2.319,0.201,4.655,0.206,6.986c0.002,0.717,0.072,0.723-0.276,1.3c-0.552,0.915,0.344,0.374,0.989,1.124
			c1.162,0.225,1.632-0.27,1.632-0.27c0.77-0.617,0.725,0.078,0.223-0.69c-1.059-1.62-0.386-2.624-0.43-4.407
			c-0.036-1.44,0.156-2.898-0.28-4.308C129.557,27.762,129.609,27.466,129.846,27.279z"/>
		<path fill="#FAF4A5" d="M23.366,153.736c0.019,0.409,0.039,0.817,0.064,1.338c4.715-0.571,9.395-1.137,14.127-1.71
			c0.41,0.872,0.866,1.689,1.182,2.549c0.603,1.643,1.681,3.084,2.299,4.718c0.214,0.566,0.5,1.111,0.741,1.67
			c0.236,0.549,0.432,1.13,0.913,1.539c0.363,0.31,0.361,0.662,0.333,1.046c-0.486-0.153-0.949-0.338-1.403-0.574
			c-2.155-1.118-4.316-2.228-6.508-3.285c-2.68-1.293-5.309-2.67-7.989-3.96c-1.305-0.628-2.51-1.42-3.922-1.877
			C23.235,154.655,23.092,154.181,23.366,153.736z"/>
		<path fill="#5180B8" d="M169.17,137.076c-0.058-0.031-0.161-0.057-0.167-0.094c-0.155-1.044-0.146-2.093-0.108-3.143
			c0.093,0.038,0.263,0.072,0.266,0.117C169.24,134.994,169.496,136.036,169.17,137.076z"/>
	</g>
	
		<use xlink:href="#text"  width="209.099" height="139.98" id="XMLID_1_" x="-104.549" y="-69.99" transform="matrix(0.5951 0 0 -0.8152 108.9041 113.8585)" overflow="visible"/>
</g>
</svg>
